<svg width="84" height="79" viewBox="0 0 84 79" fill="none" xmlns="http://www.w3.org/2000/svg">
<path d="M10.1589 25.6359C7.09508 26.0239 4.16445 27.0586 1.50024 28.352C2.03308 30.1627 2.69914 31.9734 3.76482 33.5254C5.89618 37.4055 8.56039 40.1216 11.6242 41.6736C15.2209 43.355 18.6844 43.355 22.8139 42.4496C24.9452 42.0616 27.343 41.5443 28.9415 40.7683C27.0766 40.6389 24.4124 40.1216 22.281 39.3456C17.8851 37.7935 14.5548 35.5948 12.4235 32.7494C11.0914 30.9387 10.4253 28.3519 10.1589 25.6359ZM11.3578 16.3236C9.62607 21.6264 9.35965 28.0933 12.5567 32.8787C14.6881 35.7241 18.0183 37.9229 22.4142 39.4749C24.6788 40.2509 27.343 40.7683 29.0748 40.8976C27.7427 39.7336 25.8777 38.1815 24.5456 36.3708C21.8814 32.7494 20.4161 29.128 20.4161 25.5065C20.4161 23.5665 20.8157 21.4971 21.7482 19.5571C18.8176 17.617 14.8213 16.5823 11.3578 16.3236ZM35.2024 19.5571C36.0017 21.4971 36.4013 23.4372 36.4013 25.3772C36.4013 28.8693 35.0692 32.4907 32.405 36.2415C31.0729 38.0522 30.1404 39.6042 28.9415 40.7683C30.2736 40.6389 32.8046 40.2509 34.1367 39.8629C38.2663 38.5695 41.3301 36.5001 43.3283 33.6547C44.9268 31.456 45.9925 28.74 46.1257 25.7652C46.5253 22.6612 46.1257 19.4277 45.4596 16.3236C42.3958 16.5823 37.9998 17.8757 35.2024 19.5571ZM29.7408 11.7969C29.4744 11.5382 28.6751 10.8915 28.4087 10.7622C27.0766 11.7969 25.8777 13.2196 24.5456 14.9009C22.0146 18.005 20.5493 21.6264 20.4161 25.3772C20.4161 28.8693 21.8814 32.4907 24.5456 36.2415C25.8777 38.0522 27.8759 39.6042 29.0748 40.7683C30.4069 41.2856 32.8046 42.3203 34.1367 42.579C38.5327 43.4843 42.2626 43.2256 45.3264 41.8029C48.3902 40.2509 51.0544 37.6642 53.1858 33.7841C54.2515 31.9734 54.9175 30.1627 55.4504 28.6106C52.9194 27.3173 49.3227 25.8946 46.2589 25.7652C45.9925 28.8693 44.9268 31.5854 43.4615 33.6547C41.4633 36.5001 38.3995 38.5695 34.27 39.8629C32.9379 40.2509 30.4069 40.6389 29.0748 40.7683C30.4069 39.6042 31.2061 37.9228 32.5382 36.1121C35.2024 32.4907 36.5345 28.8693 36.5345 25.2479C36.5345 23.3078 36.1349 21.4971 35.3356 19.5571C34.1367 16.9703 31.8722 13.8662 29.7408 11.7969Z" fill="url(#paint0_linear_319_97)"/>
<path d="M64.2423 77.4999C63.7094 68.0583 62.5105 54.9953 64.2423 54.7366C76.764 54.6073 77.0304 52.4086 75.6983 40.8976C78.2293 39.6042 84.0906 38.5695 82.0924 34.9481C79.5614 31.1974 77.6965 28.0933 76.764 25.7652C76.4976 25.2479 76.098 24.0839 75.9647 23.4372C73.9666 14.901 71.1692 8.56345 64.7751 4.94203C53.8518 -1.13679 36.4013 0.803241 28.8083 11.0208M28.9415 40.7683C37.2006 48.3991 40.664 69.6103 27.2098 74.7838M28.9415 40.7683C27.343 41.5443 24.9452 42.0616 22.8139 42.4496C18.6844 43.355 15.2209 43.355 11.6242 41.6736C8.56039 40.1216 5.89618 37.4055 3.76482 33.5254C2.69914 31.9734 2.03308 30.1627 1.50024 28.352C4.16445 27.0586 7.09508 26.0239 10.1589 25.6359C10.4253 28.3519 11.0914 30.9387 12.4235 32.7494C14.5548 35.5948 17.8851 37.7935 22.281 39.3456C24.4124 40.1216 27.0766 40.6389 28.9415 40.7683ZM28.9415 40.7683C30.1404 39.6042 31.0729 38.0522 32.405 36.2415C35.0692 32.4907 36.4013 28.8693 36.4013 25.3772C36.4013 23.4372 36.0017 21.4971 35.2024 19.5571C37.9998 17.8757 42.3958 16.5823 45.4596 16.3236C46.1257 19.4277 46.5253 22.6612 46.1257 25.7652C45.9924 28.74 44.9268 31.456 43.3283 33.6547C41.3301 36.5001 38.2663 38.5695 34.1367 39.8629C32.8046 40.2509 30.2736 40.6389 28.9415 40.7683ZM29.0748 40.7683C27.8759 39.6042 25.8777 38.0522 24.5456 36.2415C21.8814 32.4907 20.4161 28.8693 20.4161 25.3772C20.5493 21.6264 22.0146 18.005 24.5456 14.9009C25.8777 13.2196 27.0766 11.7969 28.4087 10.7622C28.6751 10.8915 29.4744 11.5382 29.7408 11.7969C31.8722 13.8662 34.1367 16.9703 35.3356 19.5571C36.1349 21.4971 36.5345 23.3078 36.5345 25.2479C36.5345 28.8693 35.2024 32.4907 32.5382 36.1121C31.2061 37.9228 30.4069 39.6042 29.0748 40.7683ZM29.0748 40.7683C30.4069 41.2856 32.8046 42.3203 34.1367 42.579C38.5327 43.4843 42.2626 43.2256 45.3264 41.8029C48.3902 40.2509 51.0544 37.6642 53.1858 33.7841C54.2515 31.9734 54.9175 30.1627 55.4504 28.6106C52.9194 27.3173 49.3227 25.8946 46.2589 25.7652C45.9925 28.8693 44.9268 31.5854 43.4615 33.6547C41.4633 36.5001 38.3995 38.5695 34.27 39.8629C32.9379 40.2509 30.4069 40.6389 29.0748 40.7683ZM11.3578 16.3236C9.62607 21.6264 9.35965 28.0933 12.5567 32.8787C14.6881 35.7241 18.0183 37.9229 22.4142 39.4749C24.6788 40.2509 27.343 40.7683 29.0748 40.8976C27.7427 39.7336 25.8777 38.1815 24.5456 36.3708C21.8814 32.7494 20.4161 29.128 20.4161 25.5065C20.4161 23.5665 20.8157 21.4971 21.7482 19.5571C18.8176 17.617 14.8213 16.5823 11.3578 16.3236Z" stroke="black" stroke-width="3" stroke-linecap="round" stroke-linejoin="round"/>
<defs>
<linearGradient id="paint0_linear_319_97" x1="42.0002" y1="1.49988" x2="41.8575" y2="59.4793" gradientUnits="userSpaceOnUse">
<stop stop-color="white"/>
<stop offset="0.403846" stop-color="#82FFF0"/>
<stop offset="1" stop-color="#147167"/>
</linearGradient>
</defs>
</svg>
