<svg width="71" height="72" viewBox="0 0 71 72" fill="none" xmlns="http://www.w3.org/2000/svg">
<path d="M62.761 23.6087L48.437 20.9826L43.3042 26.1154L45.8109 40.4395L62.761 23.6087Z" fill="url(#paint0_linear_322_113)"/>
<path d="M32.4418 49.2726V65.8646C32.4418 68.7294 30.1739 70.878 27.4284 70.878H10.1202C7.25542 70.878 4.98745 68.6101 4.98745 65.8646L5.10682 49.2726L6.89732 47.3627C8.09099 46.0497 10.2396 46.0497 11.5526 47.3627C12.7463 48.6757 14.8949 48.6757 16.2079 47.3627C17.4016 46.0497 19.5502 46.0497 20.8632 47.3627C22.0569 48.6757 24.2055 48.6757 25.5186 47.3627C26.7122 46.0497 28.8608 46.0497 30.1739 47.3627L32.4418 49.2726ZM21.2213 54.286C21.2213 55.5991 22.2957 56.6733 23.6087 56.6733C24.9217 56.6733 25.996 55.5991 25.996 54.286C25.996 52.973 24.9217 51.8987 23.6087 51.8987C22.2957 51.8987 21.2213 52.973 21.2213 54.286ZM10.359 60.8512C10.359 62.1642 11.4333 63.2385 12.7463 63.2385C14.0593 63.2385 15.1336 62.1642 15.1336 60.8512C15.1336 59.5381 14.0593 58.4639 12.7463 58.4639C11.4333 58.4639 10.359 59.5381 10.359 60.8512Z" fill="url(#paint1_linear_322_113)"/>
<path d="M5.10682 49.2726V41.3944L1.04834 36.1422H32.3225V49.2726L30.1739 47.3627M5.10682 49.2726L6.89732 47.3627C8.09099 46.0497 10.2396 46.0497 11.5526 47.3627C12.7463 48.6757 14.8949 48.6757 16.2079 47.3627C17.4016 46.0497 19.5502 46.0497 20.8632 47.3627C22.0569 48.6757 24.2055 48.6757 25.5186 47.3627C26.7122 46.0497 28.8608 46.0497 30.1739 47.3627M5.10682 49.2726L4.98745 65.8646C4.98745 68.6101 7.25542 70.878 10.1202 70.878H27.4284C30.1739 70.878 32.4418 68.7294 32.4418 65.8646V49.2726L30.1739 47.3627M66.9389 19.9083L44.9754 15.9692L33.6355 4.74875L34.7098 3.67443L32.0837 1.04834L23.2506 9.8815L25.8767 12.5076L26.951 11.4333L38.2908 22.7731L42.2299 44.7366C42.588 46.6465 45.0947 47.4821 46.4078 46.0497L68.4907 23.9668C69.6843 22.7731 68.9681 20.2664 66.9389 19.9083ZM62.761 23.6087L48.437 20.9826L43.3042 26.1154L45.8109 40.4395L62.761 23.6087ZM25.996 29.2189C25.996 30.8011 24.7134 32.0838 23.1312 32.0838C21.549 32.0838 20.2664 30.8011 20.2664 29.2189C20.2664 27.6368 21.549 26.3541 23.1312 26.3541C24.7134 26.3541 25.996 27.6368 25.996 29.2189ZM12.5076 27.5478C12.5076 29.13 11.2249 30.4126 9.64276 30.4126C8.06057 30.4126 6.77795 29.13 6.77795 27.5478C6.77795 25.9656 8.06057 24.683 9.64276 24.683C11.2249 24.683 12.5076 25.9656 12.5076 27.5478ZM18.4759 16.4467C18.4759 18.0288 17.1933 19.3115 15.6111 19.3115C14.0289 19.3115 12.7463 18.0288 12.7463 16.4467C12.7463 14.8645 14.0289 13.5819 15.6111 13.5819C17.1933 13.5819 18.4759 14.8645 18.4759 16.4467ZM21.2213 54.286C21.2213 55.5991 22.2957 56.6733 23.6087 56.6733C24.9217 56.6733 25.996 55.5991 25.996 54.286C25.996 52.973 24.9217 51.8987 23.6087 51.8987C22.2957 51.8987 21.2213 52.973 21.2213 54.286ZM10.359 60.8512C10.359 62.1642 11.4333 63.2385 12.7463 63.2385C14.0593 63.2385 15.1336 62.1642 15.1336 60.8512C15.1336 59.5381 14.0593 58.4639 12.7463 58.4639C11.4333 58.4639 10.359 59.5381 10.359 60.8512Z" stroke="black" stroke-width="2.09677" stroke-linecap="round" stroke-linejoin="round"/>
<defs>
<linearGradient id="paint0_linear_322_113" x1="35.2957" y1="13.0483" x2="35.2957" y2="76.5483" gradientUnits="userSpaceOnUse">
<stop stop-color="white"/>
<stop offset="0.418269" stop-color="#26D7C4"/>
<stop offset="1" stop-color="#147167"/>
</linearGradient>
<linearGradient id="paint1_linear_322_113" x1="35.2957" y1="13.0483" x2="35.2957" y2="76.5483" gradientUnits="userSpaceOnUse">
<stop stop-color="white"/>
<stop offset="0.418269" stop-color="#26D7C4"/>
<stop offset="1" stop-color="#147167"/>
</linearGradient>
</defs>
</svg>
