<svg width="75" height="76" viewBox="0 0 75 76" fill="none" xmlns="http://www.w3.org/2000/svg">
<path d="M57.5951 31.9159C49.0906 31.9159 42.2041 25.0294 42.2041 16.5249C42.2041 14.4714 42.6189 12.5216 43.3449 10.717H15.778L19.6569 49.4434H63.1333L65.0831 29.9661C62.8637 31.2106 60.3123 31.9159 57.5951 31.9159ZM31.978 43.9881H27.7672V39.7773H31.978V43.9881ZM41.6648 43.9881H37.4541V39.7773H41.6648V43.9881ZM51.3723 43.9881H47.1616V39.7773H51.3723V43.9881Z" fill="url(#paint0_linear_322_122)"/>
<path d="M57.5951 22.0839L65.6432 14.0358L62.677 11.0489L57.5951 16.1308L56.1846 17.5205L52.5131 13.8491L49.5262 16.8153L56.1846 23.4737L57.5951 22.0839Z" fill="url(#paint1_linear_322_122)"/>
<path d="M26.6057 64.2121C23.7639 64.2121 21.4822 66.5145 21.4822 69.3355C21.4822 72.1565 23.7847 74.4589 26.6057 74.4589C29.4267 74.4589 31.7291 72.1565 31.7291 69.3355C31.7291 66.5145 29.4267 64.2121 26.6057 64.2121Z" fill="url(#paint2_linear_322_122)"/>
<path d="M52.3472 64.2121C49.5055 64.2121 47.2238 66.5145 47.2238 69.3355C47.2238 72.1565 49.5262 74.4589 52.3472 74.4589C55.1682 74.4589 57.4706 72.1565 57.4706 69.3355C57.4706 66.5145 55.1682 64.2121 52.3472 64.2121Z" fill="url(#paint3_linear_322_122)"/>
<path d="M57.5951 22.0839L56.2053 23.4737L49.5469 16.8153L52.5339 13.8284L56.2261 17.5205L62.6977 11.0489L65.6847 14.0358L57.6365 22.0839H57.5951ZM57.5951 22.0839L65.6432 14.0358L62.677 11.0489L57.5951 16.1308L56.1846 17.5205L52.5131 13.8491L49.5262 16.8153L56.1846 23.4737L57.5951 22.0839ZM57.5951 31.9159C49.0906 31.9159 42.2041 25.0294 42.2041 16.5249C42.2041 14.4714 42.6189 12.5216 43.3449 10.717H15.778L19.6569 49.4434H63.1333L65.0831 29.9661C62.8637 31.2106 60.3123 31.9159 57.5951 31.9159ZM31.978 43.9881H27.7672V39.7773H31.978V43.9881ZM41.6648 43.9881H37.4541V39.7773H41.6648V43.9881ZM51.3723 43.9881H47.1616V39.7773H51.3723V43.9881ZM57.5951 1.13391C51.1441 1.13391 45.6266 5.09575 43.3449 10.7377C42.6189 12.5216 42.2041 14.4921 42.2041 16.5456C42.2041 25.0501 49.0906 31.9366 57.5951 31.9366C60.3123 31.9366 62.8637 31.2314 65.0831 29.9868C69.8124 27.3525 73.0068 22.3121 73.0068 16.5249C73.0068 8.02044 66.1203 1.13391 57.6158 1.13391H57.5951ZM63.1126 49.4434H19.6362L14.8031 1.13391H1.13379V5.32391H10.9865L15.4254 49.8167C12.7081 50.7709 10.7583 53.3637 10.7791 56.3921C10.7791 60.2295 13.9942 63.2994 17.8315 63.2994H63.0918V59.1094H17.7071C16.1721 59.1094 14.9276 57.8234 14.9898 56.2884C15.052 54.8157 16.3173 53.6541 17.7901 53.6541H63.1126V49.4434ZM26.6057 64.2121C23.7639 64.2121 21.4822 66.5145 21.4822 69.3355C21.4822 72.1565 23.7847 74.4589 26.6057 74.4589C29.4267 74.4589 31.7291 72.1565 31.7291 69.3355C31.7291 66.5145 29.4267 64.2121 26.6057 64.2121ZM52.3472 64.2121C49.5055 64.2121 47.2238 66.5145 47.2238 69.3355C47.2238 72.1565 49.5262 74.4589 52.3472 74.4589C55.1682 74.4589 57.4706 72.1565 57.4706 69.3355C57.4706 66.5145 55.1682 64.2121 52.3472 64.2121Z" stroke="black" stroke-width="2.26778" stroke-linecap="round" stroke-linejoin="round"/>
<defs>
<linearGradient id="paint0_linear_322_122" x1="37.0703" y1="1.13391" x2="37.1172" y2="81.6339" gradientUnits="userSpaceOnUse">
<stop stop-color="white"/>
<stop offset="0.461538" stop-color="#26D7C4"/>
<stop offset="1" stop-color="#147167"/>
</linearGradient>
<linearGradient id="paint1_linear_322_122" x1="37.0703" y1="1.13391" x2="37.1172" y2="81.6339" gradientUnits="userSpaceOnUse">
<stop stop-color="white"/>
<stop offset="0.461538" stop-color="#26D7C4"/>
<stop offset="1" stop-color="#147167"/>
</linearGradient>
<linearGradient id="paint2_linear_322_122" x1="37.0703" y1="1.13391" x2="37.1172" y2="81.6339" gradientUnits="userSpaceOnUse">
<stop stop-color="white"/>
<stop offset="0.461538" stop-color="#26D7C4"/>
<stop offset="1" stop-color="#147167"/>
</linearGradient>
<linearGradient id="paint3_linear_322_122" x1="37.0703" y1="1.13391" x2="37.1172" y2="81.6339" gradientUnits="userSpaceOnUse">
<stop stop-color="white"/>
<stop offset="0.461538" stop-color="#26D7C4"/>
<stop offset="1" stop-color="#147167"/>
</linearGradient>
</defs>
</svg>
