<svg width="77" height="78" viewBox="0 0 77 78" fill="none" xmlns="http://www.w3.org/2000/svg">
<path d="M72.8907 11.0192C72.5089 10.248 71.6182 9.73386 70.7274 9.73386L68.0553 9.86239C66.0193 8.70557 63.6016 8.57705 61.4383 9.4768C61.1838 9.60533 60.9292 9.73385 60.6747 9.86239L54.694 13.4613L47.0591 18.0886L31.9164 27.3431L29.2441 26.0577C27.9716 25.4151 26.3174 25.5436 25.1721 26.4433L24.4087 27.0861L30.2622 32.2274C31.4074 33.2557 33.1889 33.5127 34.5886 32.7415L50.4948 24.6439L49.6041 21.4305L58.5116 16.2891L58.1298 20.7878L71.6182 13.9755C72.8907 13.4614 73.3997 12.176 72.8907 11.0192Z" fill="url(#paint0_linear_322_116)"/>
<path d="M10.9203 30.428C12.829 30.0424 14.1015 28.1143 14.7377 26.1863C15.2467 24.2583 15.5012 22.2018 16.3919 20.4023C17.5371 18.2172 19.7004 16.9318 21.9909 16.0321C23.2634 15.5179 24.6631 15.0038 25.4266 13.7185C26.1901 12.4331 25.9356 10.7622 25.8084 9.21975C25.6811 7.1632 25.9357 4.9781 26.572 3.05008C26.4871 3.05008 26.4023 3.09292 26.3175 3.17861C25.8085 3.30714 25.2994 3.56418 24.7904 3.82125C19.1914 6.00634 14.2288 9.60535 10.4113 14.1041C10.1568 14.4897 9.77495 14.7467 9.52045 15.1323C9.26595 15.1323 9.13873 15.3894 8.88423 15.6465C6.33924 18.9884 4.30323 22.7159 3.03073 26.5719C5.83022 27.6002 7.99353 30.9421 10.9203 30.428Z" fill="url(#paint1_linear_322_116)"/>
<path d="M75.1812 38.5256V36.0835C75.1812 35.5693 75.054 34.9267 75.054 34.4126V34.284C71.7455 34.4126 68.5643 35.0552 65.5103 36.212C62.0745 37.6259 58.8933 39.8109 55.2031 39.6824C52.7854 39.5539 50.4948 38.2686 48.2043 37.4974C45.7865 36.7262 42.9871 36.7262 41.3328 38.6542C40.0603 40.0681 40.0604 42.1247 39.9331 44.0527C39.9331 47.1375 39.8059 50.0938 39.8059 53.0501C39.8059 56.9062 39.6787 62.1761 35.9884 63.4614C26.6992 66.5462 25.6811 70.0166 25.6811 73.7442C26.6991 74.1298 27.7171 74.3868 28.7351 74.6439H28.8624C29.8804 74.9009 30.7711 75.158 31.7891 75.2865C31.9164 75.2865 32.0436 75.2865 32.1708 75.415C33.0616 75.5436 34.0796 75.6722 34.9703 75.8008H35.3521C36.3701 75.9293 37.2608 75.9293 38.2788 75.9293H40.1876C59.5295 74.901 75.1812 58.5771 75.1812 38.5256Z" fill="url(#paint2_linear_322_116)"/>
<path d="M50.7493 24.7724L49.8586 21.559L58.7661 16.4177L58.3843 20.9164M50.7493 24.7724L53.4215 34.5411L57.3662 32.8701L58.3843 20.9164M50.7493 24.7724L34.8431 32.8701C33.4434 33.6413 31.7892 33.3842 30.5167 32.356L24.6632 27.2146L25.4266 26.5719C26.5719 25.6722 28.099 25.5436 29.4987 26.1863L32.1708 27.4717L47.3136 18.2171L40.5694 12.3046L43.8778 9.34828L54.9486 13.5899L60.9292 9.99093C61.1837 9.86239 61.4383 9.73388 61.6928 9.60534C55.2031 4.33542 47.059 1.12207 38.1516 1.12207C34.0796 1.12207 30.1349 1.76473 26.572 3.05008M58.3843 20.9164L67.8008 16.1606C71.6183 21.302 74.1632 27.6002 74.9267 34.284C71.6182 34.4126 68.437 35.0552 65.383 36.212C61.9473 37.6259 58.7661 39.9395 55.0758 39.6824C52.6581 39.5539 50.3675 38.1401 48.077 37.4974C45.7865 36.8547 42.8598 36.7262 41.2056 38.6542C39.9331 40.0681 39.8059 42.1247 39.8059 44.0527C39.8059 47.009 39.6786 50.0938 39.6786 53.0501C39.6786 56.9062 39.5514 62.1761 35.8612 63.4614C26.572 66.5462 25.5539 69.8881 25.4266 73.7442C26.4446 74.0012 27.4626 74.3868 28.4806 74.6439C12.7017 70.2737 1.12207 55.7493 1.12207 38.5256C1.12207 34.4125 1.75824 30.2995 3.03073 26.5719M10.9203 30.428C12.829 30.0424 14.1015 28.1143 14.7377 26.1863M10.9203 30.428C7.99353 30.9421 5.83022 27.6002 3.03073 26.5719M10.9203 30.428C12.9563 30.1709 14.2287 28.1143 14.7377 26.1863M14.7377 26.1863C15.2467 24.2583 15.5012 22.2018 16.3919 20.4023M14.7377 26.1863C15.2467 24.2583 15.3739 22.2018 16.3919 20.4023M16.3919 20.4023C17.5371 18.2172 19.7004 16.9318 21.9909 16.0321M16.3919 20.4023C17.5371 18.3457 19.8277 16.9318 21.9909 16.0321M21.9909 16.0321C23.2634 15.5179 24.6631 15.0038 25.4266 13.7185M21.9909 16.0321C23.2634 15.3894 24.6631 14.8753 25.4266 13.7185M25.4266 13.7185C26.1901 12.4331 25.9356 10.7622 25.8084 9.21975M25.8084 9.21975C25.6811 7.1632 25.9357 4.9781 26.572 3.05008M25.8084 9.21975C25.6811 7.1632 25.9357 5.10663 26.572 3.05008M26.572 3.05008C26.4871 3.05008 26.4023 3.09292 26.3175 3.17861C25.8085 3.30714 25.2994 3.56418 24.7904 3.82125C19.1914 6.00634 14.2288 9.60535 10.4113 14.1041C10.1568 14.4897 9.77495 14.7467 9.52045 15.1323C9.26595 15.1323 9.13873 15.3894 8.88423 15.6465C6.33924 18.9884 4.30323 22.7159 3.03073 26.5719M25.5539 34.284C24.9176 34.6696 24.4087 35.0552 23.8997 35.4408M19.1914 39.4254C15.1194 43.7955 13.3379 48.8084 12.9562 54.3354M12.8289 57.4203V59.4769M43.6233 9.34828L40.4421 12.3046L47.1863 18.2171L54.8212 13.5899L43.6233 9.34828ZM72.8907 11.0192C72.5089 10.248 71.6182 9.73386 70.7274 9.73386L68.0553 9.86239C66.0193 8.70557 63.6016 8.57705 61.4383 9.4768C61.1838 9.60533 60.9292 9.73385 60.6747 9.86239L54.694 13.4613L47.0591 18.0886L31.9164 27.3431L29.2441 26.0577C27.9716 25.4151 26.3174 25.5436 25.1721 26.4433L24.4087 27.0861L30.2622 32.2274C31.4074 33.2557 33.1889 33.5127 34.5886 32.7415L50.4948 24.6439L49.6041 21.4305L58.5116 16.2891L58.1298 20.7878L71.6182 13.9755C72.8907 13.4614 73.3997 12.176 72.8907 11.0192ZM75.1812 38.5256V36.0835C75.1812 35.5693 75.054 34.9267 75.054 34.4126V34.284C71.7455 34.4126 68.5643 35.0552 65.5103 36.212C62.0745 37.6259 58.8933 39.8109 55.2031 39.6824C52.7853 39.5539 50.4948 38.2686 48.2043 37.4974C45.7865 36.7262 42.9871 36.7262 41.3328 38.6542C40.0603 40.0681 40.0604 42.1247 39.9331 44.0527C39.9331 47.1375 39.8059 50.0938 39.8059 53.0501C39.8059 56.9062 39.6787 62.1761 35.9884 63.4614C26.6992 66.5462 25.6811 70.0166 25.6811 73.7442C26.6991 74.1298 27.7171 74.3868 28.7351 74.6439H28.8624C29.8804 74.9009 30.7711 75.158 31.7891 75.2865C31.9164 75.2865 32.0436 75.2865 32.1708 75.415C33.0616 75.5436 34.0796 75.6722 34.9703 75.8007H35.3521C36.3701 75.9293 37.2608 75.9293 38.2788 75.9293H40.1876C59.5295 74.901 75.1812 58.5771 75.1812 38.5256Z" stroke="black" stroke-width="2.24422" stroke-linecap="round" stroke-linejoin="round"/>
<defs>
<linearGradient id="paint0_linear_322_116" x1="38.2617" y1="-5.37793" x2="38.2617" y2="86.1221" gradientUnits="userSpaceOnUse">
<stop stop-color="#FCFFFF"/>
<stop offset="0.466346" stop-color="#26D7C4"/>
<stop offset="1" stop-color="#147167"/>
</linearGradient>
<linearGradient id="paint1_linear_322_116" x1="38.2617" y1="-5.37793" x2="38.2617" y2="86.1221" gradientUnits="userSpaceOnUse">
<stop stop-color="#FCFFFF"/>
<stop offset="0.466346" stop-color="#26D7C4"/>
<stop offset="1" stop-color="#147167"/>
</linearGradient>
<linearGradient id="paint2_linear_322_116" x1="38.2617" y1="-5.37793" x2="38.2617" y2="86.1221" gradientUnits="userSpaceOnUse">
<stop stop-color="#FCFFFF"/>
<stop offset="0.466346" stop-color="#26D7C4"/>
<stop offset="1" stop-color="#147167"/>
</linearGradient>
</defs>
</svg>
