<svg width="96" height="89" viewBox="0 0 96 89" fill="none" xmlns="http://www.w3.org/2000/svg">
<path d="M6.71338 8.8656V72.4544H89.7526V8.8656" stroke="black" stroke-width="1.07073"/>
<path d="M2.55357 10.4106C1.78321 11.1805 1.32104 12.1045 1.32104 13.1823V75.2355C1.32104 77.3912 3.01583 79.2389 5.17284 79.0849H39.8389C41.996 79.0849 43.8448 79.8548 45.3855 81.3946C46.9263 82.9343 47.6966 84.6281 47.6966 86.7838V78.469C47.6966 77.5452 47.5425 76.7753 47.0803 76.0054C45.8477 73.3878 43.0745 71.232 39.993 71.232H10.7194C8.71649 71.232 6.71356 69.3843 6.86763 67.5366V9.17887C5.32692 9.17887 3.63207 9.17882 2.55357 10.4106ZM38.2982 37.5109V24.8846H16.4201V37.5109H38.2982ZM94.2262 14.7221C94.3803 11.0266 92.2233 8.40898 88.6796 9.17887V67.3826C88.6796 69.6923 86.9849 71.386 84.6738 71.232H55.5542C52.6269 71.232 49.8536 72.9258 48.621 75.6974C48.1588 76.6213 47.8507 77.6991 47.8507 78.777V86.7838C47.8507 84.6281 48.621 82.9343 50.0077 81.3946C51.5484 79.8548 53.5513 79.0849 55.7083 79.0849H90.3744C92.5314 79.0849 94.3803 77.3912 94.2262 75.2355V14.7221Z" fill="url(#paint0_linear_294_738)"/>
<path d="M6.86763 9.17887V5.32943C6.86763 3.32772 8.71649 1.32601 10.7194 1.32601H39.8389C43.8448 1.17203 47.6966 4.71354 47.6966 8.71697C47.8507 4.71354 51.5484 1.17203 55.5542 1.32601H84.5197C88.6796 1.17203 88.6796 6.2533 88.5256 9.17889M47.8507 78.623V8.71697V78.623ZM16.4201 49.9831H38.2982H16.4201ZM16.4201 55.5263H38.2982H16.4201ZM16.4201 43.824H38.2982H16.4201ZM16.4201 17.8016H38.2982H16.4201ZM57.249 37.5109H79.2812H57.249ZM57.249 43.824H79.2812H57.249ZM57.249 31.1977H79.2812H57.249ZM57.249 24.8846H79.2812H57.249ZM57.249 18.2636H79.2812H57.249Z" fill="url(#paint1_linear_294_738)"/>
<path d="M68.034 51.2149H70.6533H68.034ZM62.3334 51.2149H65.2608H62.3334ZM56.9409 51.2149H59.7142H56.9409Z" fill="url(#paint2_linear_294_738)"/>
<path d="M6.86763 9.17887V67.5366C6.71356 69.3843 8.71649 71.232 10.7194 71.232H39.993C43.0745 71.232 45.8477 73.3878 47.0803 76.0054C47.5425 76.7753 47.6966 77.5452 47.6966 78.469V86.7838C47.6966 84.6281 46.9263 82.9344 45.3855 81.3946C43.8448 79.8548 41.996 79.0849 39.8389 79.0849H5.17284C3.01583 79.2389 1.32104 77.3912 1.32104 75.2355V13.1823C1.32104 12.1045 1.78321 11.1805 2.55357 10.4106C3.63207 9.17882 5.32692 9.17887 6.86763 9.17887ZM6.86763 9.17887V5.32943C6.86763 3.32772 8.71649 1.32601 10.7194 1.32601H39.8389C43.8448 1.17203 47.6966 4.71354 47.6966 8.71697C47.8507 4.71354 51.5484 1.17203 55.5542 1.32601H84.5197C88.6796 1.17203 88.6796 6.2533 88.5256 9.17889M47.8507 78.623V8.71697M16.4201 49.9831H38.2982M16.4201 55.5263H38.2982M16.4201 43.824H38.2982M16.4201 17.8016H38.2982M57.249 37.5109H79.2812M57.249 43.824H79.2812M57.249 31.1977H79.2812M57.249 24.8846H79.2812M57.249 18.2636H79.2812M68.034 51.2149H70.6533M62.3334 51.2149H65.2608M56.9409 51.2149H59.7142M38.2982 37.5109V24.8846H16.4201V37.5109H38.2982ZM94.2262 14.7221C94.3803 11.0266 92.2233 8.40898 88.6796 9.17887V67.3826C88.6796 69.6923 86.9849 71.386 84.6738 71.232H55.5542C52.6269 71.232 49.8536 72.9258 48.621 75.6974C48.1588 76.6213 47.8507 77.6991 47.8507 78.777V86.7838C47.8507 84.6281 48.621 82.9344 50.0077 81.3946C51.5484 79.8548 53.5513 79.0849 55.7083 79.0849H90.3744C92.5314 79.0849 94.3803 77.3912 94.2262 75.2355V14.7221Z" stroke="black" stroke-width="2.64228" stroke-linecap="round" stroke-linejoin="round"/>
<defs>
<linearGradient id="paint0_linear_294_738" x1="45.7854" y1="-19.1788" x2="44.2854" y2="152.821" gradientUnits="userSpaceOnUse">
<stop stop-color="white"/>
<stop offset="0.451923" stop-color="#26D7C4"/>
<stop offset="1" stop-color="#147167"/>
</linearGradient>
<linearGradient id="paint1_linear_294_738" x1="45.7854" y1="-19.1788" x2="44.2854" y2="152.821" gradientUnits="userSpaceOnUse">
<stop stop-color="white"/>
<stop offset="0.451923" stop-color="#26D7C4"/>
<stop offset="1" stop-color="#147167"/>
</linearGradient>
<linearGradient id="paint2_linear_294_738" x1="45.7854" y1="-19.1788" x2="44.2854" y2="152.821" gradientUnits="userSpaceOnUse">
<stop stop-color="white"/>
<stop offset="0.451923" stop-color="#26D7C4"/>
<stop offset="1" stop-color="#147167"/>
</linearGradient>
</defs>
</svg>
